# xmcd
#
# Track frame offsets:
#	150
#	14907
#	29812
#	42599
#	55952
#	76092
#	87817
#	105067
#	119902
#	139249
#	154447
#	165544
#	179612
#	191172
#	205884
#	332850
#
# Disc length: 4658 seconds
#
# Revision: 0
# Processed by: cddbd v1.4PL0 Copyright (c) Steve Scherf et al.
# Submitted via: dBpowerAMP V4.0
#
DISCID=ee123010
DTITLE=Robbie Williams - Sing when you´re winning
DYEAR=2001
DGENRE=Big Band
TTITLE0=I will talk an Hollywood will listen
TTITLE1=Mack the knife
TTITLE2=Somethin Stupid
TTITLE3=Do nothin till you hear from me
TTITLE4=It was a very good year
TTITLE5=Straighten up and fly high
TTITLE6=Well did you evah
TTITLE7=Mr Bojangles
TTITLE8=One from my Baby
TTITLE9=Things
TTITLE10=Aint that a kick in the head
TTITLE11=They can´t take that away from me
TTITLE12=Have you met Miss Jones
TTITLE13=Me and my shadow
TTITLE14=Beyond the sea
TTITLE15=Bonus?
EXTD=
EXTT0=
EXTT1=
EXTT2=
EXTT3=
EXTT4=
EXTT5=
EXTT6=
EXTT7=
EXTT8=
EXTT9=
EXTT10=
EXTT11=
EXTT12=
EXTT13=
EXTT14=
EXTT15=
PLAYORDER=
